/* XPM */
static char *result[] = {
/* columns rows colors chars-per-pixel */
"64 64 96 2 ",
"   c #000000",
".  c #342F14",
"X  c #3B3516",
"o  c #47411B",
"O  c #5B5323",
"+  c #605725",
"@  c #675E27",
"#  c #675F28",
"$  c #685F28",
"%  c #686028",
"&  c #786D2E",
"*  c #7E7431",
"=  c #8A742F",
"-  c #837732",
";  c #8B7930",
":  c #F7731F",
">  c #F77422",
",  c #F77A24",
"<  c #F87E25",
"1  c #978939",
"2  c #B28C37",
"3  c #B28C38",
"4  c #F98326",
"5  c #F7842A",
"6  c #F88B2D",
"7  c #FA962C",
"8  c #FB9A2D",
"9  c #F88F31",
"0  c #FA9930",
"q  c #F89C38",
"w  c #FCA02F",
"e  c #FDAC2F",
"r  c #FCA330",
"t  c #FDAE34",
"y  c #F9A33B",
"u  c #FBAC39",
"i  c #FDB337",
"p  c #FDB339",
"a  c #FDBB3E",
"s  c #978B47",
"d  c #BDAC48",
"f  c #97937B",
"g  c #C0AE49",
"h  c #FAAD41",
"j  c #FDB545",
"k  c #FBB947",
"l  c #FDB649",
"z  c #FBBC49",
"x  c #FBBB55",
"c  c #FDB958",
"v  c #FDC445",
"b  c #FDCE4E",
"n  c #FDD04E",
"m  c #FCCD53",
"M  c #FCD355",
"N  c #FED956",
"B  c #FDD15C",
"V  c #FCDD5C",
"C  c #FDE35D",
"Z  c #FEC164",
"A  c #FDE761",
"S  c #FEEA62",
"D  c #FFF165",
"F  c #FEEC7B",
"G  c #FFF07B",
"H  c #979796",
"J  c #FECF87",
"K  c #FCC389",
"L  c #FED38F",
"P  c #FED390",
"I  c #FED990",
"U  c #FDEC85",
"Y  c #FEEF93",
"T  c #FEE498",
"R  c #FEF09F",
"E  c #FCC7A4",
"W  c #FEDAA2",
"Q  c #FEDEAC",
"!  c #FDDCBF",
"~  c #FEE7A7",
"^  c #FEEDAD",
"/  c #FEF1A1",
"(  c #FEE1B3",
")  c #FEF4B7",
"_  c #FEF5B8",
"`  c #FEE6C1",
"'  c #FFE8C4",
"]  c #FDE1CE",
"[  c #FFECCF",
"{  c #FDE3D0",
"}  c #FFFCD3",
"|  c #FEF6DA",
" . c #FFFADC",
".. c #FFF7EB",
"X. c #FFFFFF",
"o. c None",
/* pixels */
"o.o.o.o.o.o.o.o.o.o.o.o.o.o.o.o.o.o.o.o.o.o.o.o.o.o.o.o.o.o.o.o.o.o.o.o.o.o.o.o.o.o.o.o.o.o.o.o.o.o.o.o.o.o.o.o.o.o.o.o.o.o.o.o.",
"o.o.o.o.o.o.o.o.o.o.o.o.o.o.o.o.o.o.o.o.o.o.o.o.o.o.o.o.o.o.o.o.o.o.o.o.o.o.o.o.o.o.o.o.o.o.o.o.o.o.o.o.o.o.o.o.o.o.o.o.o.o.o.o.",
"o.o.o.o.o.o.o.o.o.o.o.o.o.o.o.o.o.o.o.o.o.o.o.o.o.o.o.o.o.o.o.o.o.o.o.o.o.o.o.o.o.o.o.o.o.o.o.o.o.o.o.o.o.o.o.o.o.o.o.o.o.o.o.o.",
"o.o.o.o.o.o.o.o.o.o.                                                                                          o.o.o.o.o.o.o.o.o.",
"o.o.o.o.o.o.o.o.o.o.                                                                                            o.o.o.o.o.o.o.o.",
"o.o.o.o.o.o.o.o.o.o.                                                                                            o.o.o.o.o.o.o.o.",
"o.o.o.o.o.o.o.    . 1 1 1 1 1 1 1 1 1 1 1 1 1 1 1 1 1 1 1 1 1 1 1 1 1 s H H H H H H H H H f 1 1 1 1 1 1 1 1 1 +     o.o.o.o.o.o.",
"o.o.o.o.o.o.o.    X S D S S S S D S S S D S S S S S S S S D S S S D C G X.X.X.X.X.X.X.X.X.} S S S S S S S D D -       o.o.o.o.o.",
"o.o.o.o.o.o.o.    X A A S S S S A A S A S S S S S A A A S A A A S S C G X.X.X.X.X.X.X.X.X.} A A S S S S S S S *       o.o.o.o.o.",
"o.o.o.o.o.o.o % # = k l k k k k k k z k k z k k z k z k k k k k k k z x E E E E E E E E E K k k k k k k k k z 2 % % O o.o.o.o.o.",
"o.o.o.      & S S m , > > > > > > > > > > > > > > > > > > > > > > : > > : : : : : : : : : : : : > > > > > > > h S D g       o.o.",
"o.o.o.      * S S m , > > > > > > > > > > > > > > > > > > > > > > > > > > > > > > > > : > > > : > > > > > > > h S S d       o.o.",
"o.o.o.      & S S m 4 4 4 4 4 4 4 4 4 < 4 4 < 4 4 4 4 4 4 < 4 4 4 4 4 < 4 4 < 4 4 4 4 4 4 4 4 4 4 < 4 4 < > > u S S g       o.o.",
"o.o.o.      & S S N t t t t t t t t t t t t t t t t t t t t t t t t t t t t t t u e t t u e t t t t t t 4 > > h S D g       o.o.",
"o.o.o.      & S S N t t t t t t t t t t t t t t t t t t t t t t t t t t t t t e e t t t t t t t t t t t 4 > > h S S d       o.o.",
"o.o.o.      & S A N t t t t t t t t t t t t t t r t t i p i t t t t t t w t t j k j u t t t t t t t t t 4 > > h S S d       o.o.",
"o.o.o.      & S A V t t t t t p t t t t t t r < , < m A V v t t t t t r < , , ! ....J e t t t t t e t t 4 > > h S S d       o.o.",
"o.o.o.      * S A N t t t t u t t t t t t p r , > , N A A v t t i t t r , > , { X.X.L e t t t t t t t t 5 > > h S S g       o.o.",
"o.o.o.      & S S N p t t t t t t t t t t t r , > , M A A v t t t t t t , > , { X.X.L e t i t t t t t t 4 > > h S S d       o.o.",
"o.o.o.      & S A N t u t t t t t t t t t t r > , , M A A V N N N N N N m m m | X.X.L e t t t t t t t t 4 > > h S S d       o.o.",
"o.o.o.      & S S N t t t p t t t t t t t t r , > , M S A S A S A S S S S S S } X.X.P e t t t t t t t t 4 : > h S S g       o.o.",
"o.o.o.      * S A N t t t t t t t t t t t t r , > , M A A A A A A A A A C S S ..X.X.L e t t t t t t t t 4 > > h S S g       o.o.",
"o.o.o.      & S S N t t t t t t t t t w 4 6 7 l k k V A A A A A A A A A S A C Y R R ~ Q Q J t t t t t t 4 > > h S S d       o.o.",
"o.o.o.      & S S N t t t t t t t t i 7 > > 6 A S S S A A A A A A A A A C S S C C C _ X.X.' t t t t t i 4 , : h S S d       o.o.",
"o.o.o.      & S S N t t t t t t t t i 7 > > 6 A A A A A A S A S S S A A A A A S S C _ X.X.` t t t t t t 4 > > h S S d       o.o.",
"o.o.o.      & S S N i t t t t t t t t 7 > > 6 A A A A A A M n n m k k z A A A A A C _ X.X.` t t t t t t 4 > > h S S g       o.o.",
"o.o.o.      * S S N t t t t i t t t i 7 > > 6 C A A A A A v e t 7 > : 5 C A A A A C ) X.X.` t t t t t t 4 , > h S S d       o.o.",
"o.o.o.      & S A N t t t t t t t t t 7 > > 6 A A A A A A v t t 7 > > 5 C A A A A A _ X.X.` t t t t t t 4 > > h S S d       o.o.",
"o.o.o.      & S S N t t t t t t t t i 7 : : 6 A A A A A A v t t 8 4 4 9 M N N N N M T [ [ P t u t t t t 4 > > h S S g       o.o.",
"o.o.o.      & S A N i t t t t t t t t 7 > : 6 C A A A A A v t t t u e t t t t i t t t i u t t t t t t t 4 > > h S D g       o.o.",
"o.o.o.      & S A N t t t t t t t t i 7 > > 6 A A A A A A v t t t t t t t t t t t t t t u t t t t t t t 4 > > u S S d       o.o.",
"o.o.o.      & S S N t t t t t t t t t 7 > > 6 C A A A A A v p p i i i i i i i i p p p l k j t t t t t t 4 > > j S S d       o.o.",
"o.o.o.      & D S N t t t t t t t t t 7 > > 6 C A A A A A C C C C C C V C C V C C C ^ ....( t t t t t t 5 > > u S S d       o.o.",
"o.o.o.      & S S N t t t t t t t i t 7 > : 6 A A A A A A A C A A C A A A A A A A C ) X.X.` e t u e t t 4 > > h S S d       o.o.",
"o.o.o.      & S A N t t t t t t t t t 7 > > 6 C A C C A A A C C C A A A A C A A A C ) X.X.` t t t t u e 4 > > h S S d       o.o.",
"o.o.o.      & S S N i t t t t i t t t u w w e a a a a a a a a a u 9 9 q C A A A A C ) X.X.` u t e t t t 5 > > h S S d       o.o.",
"o.o.o.      & S A N t t t t t t t t t t t t t e t t t t t t t t 0 : > 5 C A A A A C _ X.X.` t t e i u e 5 : > h S S g       o.o.",
"o.o.o.      & S A N i t t t t t t t i t t t t t t t t t t t t t 0 > > 5 C A A A A C _ X.X.( u t i e i e 5 > > h S D g       o.o.",
"o.o.o.      & S S N t t t t t t t t t w 6 6 0 n n n n b n a e t 0 : > 5 V A A A A C _ X.X.` t t u t t t 5 : , u S S d       o.o.",
"o.o.o.      & S A N t t t t t t t t t 7 : > 6 A A A A A A v t i 0 > > 5 C A A A A C ) X.X.` u t t e t t 4 : : h S S d       o.o.",
"o.o.o.      & S C N i t t t t t t t e 7 : > 6 C A A A A A v i t 8 : : 5 C A A A A C _ X.X.` t t t t t t 4 > > h S S d       o.o.",
"o.o.o.      & S S N t t t t t t t t i 7 > > 6 C A A A A C M v v a y y h A C A A A C _ X.X.( t t t t t t 5 > > u S S g       o.o.",
"o.o.o.      & S S N t t t t t t t i t 7 > > 6 A A A A A A A A A A A A A A A A A C C _ X.X.` u t t t t t 5 > > h S S d       o.o.",
"o.o.o.      & S C N i t t t t i t t t 7 > > 6 A A A A A A A A A A A A A A A A A C C _ X.X.` e t t t t t 4 > > h S S d       o.o.",
"o.o.o.      & S S N t t t t t t t t i 8 4 < 9 m m m A A A A A A A A C A A A A U U U ^ [ [ I t t t t t t 4 , > h S D g       o.o.",
"o.o.o.      * S S N t t t t t i t t t t t t w , > , M A A A A A A A A A A A A | X.X.L u u u t u t t t t 4 > > h S S g       o.o.",
"o.o.o.      & S S N i t t t t t t t t t e i w , > < M A C S A A A A A A A A A | X.X.L e i t t t t t t t 4 > > h S S d       o.o.",
"o.o.o.      & S C N t t t t t t t t t t t i w > > , M A S C C V A V C C V V V | X.X.L e t t t t t t t t 4 > > h S S d       o.o.",
"o.o.o.      & S S N t t t t t t t t t t t i r , > , M S A v p p i i p t 5 < 5 ] X.X.L e t t t t t t r t 5 > > u S S d       o.o.",
"o.o.o.      & S S N t t t t t t t t t t t t r > > , M S A v t t t t i r > > , ] X.X.P e t t t t t t t t 4 > > h S S d       o.o.",
"o.o.o.      & D S N t t t t i t t t t t t i r , > , M A A v t t t t t r , > , ] X.X.L e t t t t t t t t 4 > > h S S d       o.o.",
"o.o.o.      & S A N i t t t t t t t t t t t t 0 r r p a a p t t t t t t q r r c Z Z j t t t t t e t t t 4 > > h A S d       o.o.",
"o.o.o.      & S S N t t t t t t t t t t t t t t t t t t t t t t t t t t t t t e w e t t t t t t t t t t 4 > > h S D g       o.o.",
"o.o.o.      & S S N t t t t t t t t t t t t t t t t t t t t t t t t t t t t e t e t t e t t t t t t t t 4 : > h D D g       o.o.",
"o.o.o.o.o.o.o % @ ; b b n b b b b b b b b b b b b b m b b b b b b b b B W Q Q Q Q Q Q Q Q L n n m b n M z z z 3 # $ O o.o.o.o.o.",
"o.o.o.o.o.o.o.    X A A S A S A A A S S A S S S A S S A A A S A S S C F X.X.X.X.X.X.X.X.X.} S S A A A A A A S *       o.o.o.o.o.",
"o.o.o.o.o.o.o.    X S S S S S S S S D S S S S D S S D S S S S S S S S G X.X.X.X.X.X.X.X.X.} S S S S D S S S D -       o.o.o.o.o.",
"o.o.o.o.o.o.o.    . 1 1 1 1 1 1 1 1 1 1 1 1 1 1 1 1 1 1 1 1 1 1 1 1 1 s H H H H H H H H H f 1 1 1 1 1 1 1 1 1 +     o.o.o.o.o.o.",
"o.o.o.o.o.o.o.o.o.o.                                                                                            o.o.o.o.o.o.o.o.",
"o.o.o.o.o.o.o.o.o.o.                                                                                            o.o.o.o.o.o.o.o.",
"o.o.o.o.o.o.o.o.o.o.                                                                                          o.o.o.o.o.o.o.o.o.",
"o.o.o.o.o.o.o.o.o.o.o.o.o.o.o.o.o.o.o.o.o.o.o.o.o.o.o.o.o.o.o.o.o.o.o.o.o.o.o.o.o.o.o.o.o.o.o.o.o.o.o.o.o.o.o.o.o.o.o.o.o.o.o.o.",
"o.o.o.o.o.o.o.o.o.o.o.o.o.o.o.o.o.o.o.o.o.o.o.o.o.o.o.o.o.o.o.o.o.o.o.o.o.o.o.o.o.o.o.o.o.o.o.o.o.o.o.o.o.o.o.o.o.o.o.o.o.o.o.o.",
"o.o.o.o.o.o.o.o.o.o.o.o.o.o.o.o.o.o.o.o.o.o.o.o.o.o.o.o.o.o.o.o.o.o.o.o.o.o.o.o.o.o.o.o.o.o.o.o.o.o.o.o.o.o.o.o.o.o.o.o.o.o.o.o."
};
