/* XPM */
static char *e20cb6f75ed44d80da0c001ffba7db3dD33CqqFpRa2ZWMoH[] = {
/* columns rows colors chars-per-pixel */
"64 64 146 2 ",
"   c None",
".  c #060404",
"X  c #090505",
"o  c #0E0807",
"O  c #0F0908",
"+  c #120B06",
"@  c #190F07",
"#  c #130B09",
"$  c #1B0E0C",
"%  c #1C1106",
"&  c #1E110C",
"*  c #1C1111",
"=  c #211407",
"-  c #23120E",
";  c #2A190A",
":  c #341F0C",
">  c #241513",
",  c #2B1611",
"<  c #2D1915",
"1  c #271818",
"2  c #2C1B1A",
"3  c #341A14",
"4  c #3B1D17",
"5  c #331D1B",
"6  c #3D1F18",
"7  c #36200C",
"8  c #3D240D",
"9  c #34201F",
"0  c #3E211C",
"q  c #362121",
"w  c #3C2524",
"e  c #3F2728",
"r  c #3F2828",
"t  c #401F18",
"y  c #41270D",
"u  c #45290E",
"i  c #4B2C0E",
"p  c #44221A",
"a  c #49241C",
"s  c #573411",
"d  c #593511",
"f  c #5E3812",
"g  c #643B13",
"h  c #6B3F14",
"j  c #442622",
"k  c #4C2720",
"l  c #4E2923",
"z  c #442A2A",
"x  c #4B2F2F",
"c  c #512B24",
"v  c #562F28",
"b  c #55302C",
"n  c #5B322D",
"m  c #4C3333",
"M  c #543433",
"N  c #5E3632",
"B  c #5D3837",
"V  c #5D3A3A",
"C  c #613732",
"Z  c #643935",
"A  c #633D3D",
"S  c #6C3F3B",
"D  c #6F4114",
"F  c #6E4114",
"G  c #6C4014",
"H  c #6C4014",
"J  c #714214",
"K  c #714314",
"L  c #754515",
"P  c #714214",
"I  c #784716",
"U  c #7A4816",
"Y  c #7A4817",
"T  c #7F4B17",
"R  c #7C4917",
"E  c #7F4B18",
"W  c #68403F",
"Q  c #69403F",
"!  c #6A403E",
"~  c #6B413F",
"^  c #6E413E",
"/  c #6E413E",
"(  c #70423F",
")  c #70423E",
"_  c #664040",
"`  c #6E4240",
"'  c #6C4342",
"]  c #6C4343",
"[  c #6D4343",
"{  c #6C4241",
"}  c #734543",
"|  c #704646",
" . c #734747",
".. c #724544",
"X. c #754847",
"o. c #784847",
"O. c #784947",
"+. c #754948",
"@. c #784B4B",
"#. c #7D4C4B",
"$. c #7E4D4C",
"%. c #7C4C4C",
"&. c #804C17",
"*. c #804C17",
"=. c #804C18",
"-. c #844E19",
";. c #875019",
":. c #895119",
">. c #8A5219",
",. c #8C5319",
"<. c #8D531A",
"1. c #8E541A",
"2. c #8F541A",
"3. c #8F551A",
"4. c #8C5219",
"5. c #91561A",
"6. c #90551A",
"7. c #96591C",
"8. c #985A1C",
"9. c #995A1C",
"0. c #9A5B1C",
"q. c #9B5B1C",
"w. c #985A1C",
"e. c #A15F1D",
"r. c #A6621E",
"t. c #A7631E",
"y. c #A6621E",
"u. c #A9641F",
"i. c #AA641F",
"p. c #AB651F",
"a. c #AD6620",
"s. c #AF6820",
"d. c #B36A21",
"f. c #B56B21",
"g. c #B66B21",
"h. c #B66C21",
"j. c #B76C21",
"k. c #B56B21",
"l. c #B86D22",
"z. c #BE7023",
"x. c #804F4E",
"c. c #81504F",
"v. c #804F50",
"b. c #835150",
"n. c #855252",
"m. c #8B5656",
/* pixels */
"                                              X X X X X X X X X X X o X X X . X X                                               ",
"                                        . . . , 3 # X , 3 3 3 4 3 3 3 4 , o # 3 , . X .                                         ",
"                                . . . - , j m k a # o 6 a a a a a S Z a 4 X $ p t , , , - . . .                                 ",
"                              # $ 1 5 5 3 W m.n a $ . 4 a n n a c n.#.a 4 X $ a a a t < , $ $ $ #                               ",
"                        X # * 3 a C #.w + m  .l 3 # o < t S _ j j ] S p < X # 6 4 6 , # - a l c 3 # o .                         ",
"                    X X X w @.B t a k p 6 > # # + + o # # $ & # # # $ + + o o # + o - 6 p a C c.N 6 - X O O                     ",
"                X $ 4 4 4 3 > 5 a a p , # o X 8 s s s s s s s s s s s d s d s s 8 X o # , a k c 3 # , 4 B ] 2 .                 ",
"            . # * w ) N a 6 , > - $ - : u u u &.9.Y K 6.9.9.0.0.0.0.q.q.6.P Y q.E u u u : $ - $ , , 6 a v C j , # .             ",
"          + $ > > q W b , < < , ; : ; g 6.,.>.u.f.&.P t.l.h.h.h.h.h.h.h.r.K *.f.t.2.2.2.g : ; : , < , , 4 a 3 < 9 w *           ",
"        > 1 a 4 # & 1 > % % % i T L P 8.j.g.j.d.f.&.P r.f.f.f.f.d.h.h.h.r.K *.d.f.f.f.f.9.F L &.i @ = = , 4 - $ B o.< #         ",
"    X * .._ p t 6 < # : F F K 3.f.2.G 8.j.g.g.j.d.&.P r.f.f.f.f.f.f.f.h.r.K *.d.f.f.f.f.7.h 2.f.5.P h J : # < t p a 6 6 $ X     ",
"X O 1 1 > * # # # ; d Y u.u.a.s.f.6.G 8.j.g.g.d.d.&.P r.h.f.f.f.f.f.f.h.r.K *.d.f.f.f.f.9.h 2.f.s.p.p.p.Y d ; # # # # # 3 4 # X ",
"X O 0 6 3 , 3 , . ; h >.h.f.f.f.f.6.h 8.h.f.f.f.d.&.P r.h.f.f.f.f.f.f.h.r.K *.d.f.f.f.h.9.F 2.f.g.g.g.g.>.h ; . > 3 3 3 p t # . ",
"X # 0 l Z C a 3 X ; h >.f.f.f.f.f.2.h 8.h.f.f.f.d.&.P r.h.f.f.f.f.f.f.h.r.K *.d.f.f.f.h.9.h 6.f.g.g.g.g.>.h ; . 3 p p a C N $ . ",
". O 3 p ..S a 4 X ; h >.f.f.f.f.f.2.G 8.h.f.f.f.d.&.P r.h.f.f.f.f.f.f.h.r.K T d.f.f.f.h.9.G 3.f.g.d.g.g.:.h ; . j n k a ) _ $ . ",
". . O $ 6 6 p , . ; F >.f.f.f.f.f.3.G 8.h.f.f.f.d.&.P r.h.f.f.f.f.f.f.h.r.K T d.f.f.f.f.7.F 2.f.g.g.g.d.2.h ; X M X.l 6 p 6 O . ",
". # 4 3 # # + + X ; h >.d.f.f.f.f.2.F 7.h.f.f.f.d.*.P r.f.f.f.f.f.f.f.f.r.P &.d.d.j.d.j.8.G 5.g.d.d.g.g.>.h ; . # $ # + # + X . ",
". # 0 p 3 3 3 , . ; h >.f.f.f.f.f.2.h 9.h.f.f.f.d.*.P r.h.f.f.f.f.f.f.j.r.P &.d.j.d.g.j.8.G ,.g.g.g.g.d.>.h ; . , 3 3 3 3 < o X ",
". # p l S Z a 4 X ; h >.f.f.f.f.f.6.h 9.h.f.f.f.d.*.P r.h.f.f.f.f.f.g.j.r.P &.d.d.j.g.j.8.G 5.g.j.d.g.d.>.h ; . 3 a a a a p # . ",
". O , 6 B M 3 - . ; h ;.f.f.f.f.f.6.h 9.h.f.f.f.d.*.P r.h.f.f.f.f.f.j.j.r.P &.d.j.d.g.j.8.G ,.j.d.j.d.j.>.G ; X 3 a a a 3 , o X ",
". X * * # # # O . ; h >.f.f.f.f.f.1.G 9.h.f.f.f.d.*.P r.h.f.f.f.f.f.f.j.r.P &.d.d.j.d.j.w.G 5.j.j.g.j.j.T s = X , 6 6 6 * $ X X ",
". * ..} a p t 3 . ; G >.f.f.f.f.f.1.G 9.h.f.f.f.d.*.P r.h.f.f.f.f.f.f.f.t.K &.d.j.d.f.j.w.G >.p.p.u.p.u.i X X . o # O # x m # . ",
". $ l n @.^ a 3 X ; F -.f.f.f.f.f.6.h 7.h.f.f.f.d.*.P r.h.f.f.f.f.f.f.j.t.G T d.f.f.f.j.w.G i = ; = ; = + . . . , 4 4 6 [  .* X ",
". O p a C n k 3 X ; h >.f.f.f.f.f.6.F 9.h.f.f.f.f.&.P r.h.f.f.f.f.f.f.f.t.D T d.f.f.f.j.w.K 8 . . . . . . . . . 4 a Z ..Z M $ . ",
". # p p < , , > . ; h >.f.f.f.f.f.6.h 9.h.f.f.f.d.&.K r.f.f.f.f.f.f.f.f.t.D T f.f.f.f.j.8.H f i i i i i @ . . X - , C S c t + . ",
". O 3 3 > > > * . ; h >.f.f.f.f.g.6.h 9.h.f.f.f.d.=.K r.l.f.f.f.f.f.f.j.y.D T f.f.f.f.f.8.H ,.j.f.f.f.g.s @ o X # $ < 4 4 3 + . ",
"X X O > X.#.x.A X ; h >.f.f.f.f.f.2.h 9.h.f.f.f.d.*.K r.g.f.f.f.f.f.f.f.t.D T f.f.f.f.j.8.H ,.j.f.f.g.g.-.g ; . 3 p $ o o # X . ",
". O 3 p c N n.A X ; h >.f.f.f.f.f.2.F 9.h.f.f.f.d.*.K r.g.f.f.f.f.f.f.j.t.D T f.f.f.f.f.8.H ,.j.f.f.g.g.:.h ; . 3 a 6 6 6 3 # X ",
". # a a a a n j . ; h >.f.f.f.f.f.6.F 7.h.f.f.f.d.*.L e.l.g.f.f.f.f.f.h.t.D T f.d.j.d.j.9.F 2.g.f.f.f.f.:.h ; X 3 p a a a t + . ",
". O - > , , a 3 . ; h >.f.f.f.f.f.2.h 9.h.f.f.f.d.*.h t.g.g.f.f.f.f.f.h.t.D T f.j.d.j.j.9.h 2.g.f.f.f.f.,.h ; . 3 a a a a t # X ",
"X X # & 1 2 4 , . ; F >.f.f.f.d.g.6.h 9.l.f.f.f.d.*.K t.g.f.f.f.f.f.f.h.t.D T f.d.j.g.j.9.h 2.g.f.f.f.f.:.h ; X 3 a 4 3 3 , o . ",
". # p l @.A # o . ; h >.f.f.f.a.e.E g -.e.a.f.f.d.*.h t.l.f.f.f.f.f.f.h.t.D T f.g.g.d.g.8.F ,.f.f.f.f.f.,.h ; . < 6 $ # # # X X ",
". # t a l a t < X ; G >.f.f.j.G @ + + % % T l.f.d.*.P r.h.f.f.f.f.f.f.h.t.D T f.f.f.f.j.8.G 3.g.d.d.g.g.>.G ; . o # 3 6 p 6 O . ",
"X # t a a a a 4 X = G >.f.j.j.e.-.8 . i -.y.j.f.d.*.P r.h.f.f.f.f.f.f.h.t.D T f.f.f.f.f.8.G 3.g.g.g.j.d.>.G ; . , 3 p a ^ ^ $ . ",
"X o - - - , a 3 X ; G ;.f.f.j.j.z.s . g z.h.h.f.d.*.P r.h.f.f.f.f.f.f.h.t.D T f.f.f.f.j.8.G 3.j.d.j.d.j.;.G ; X 3 a a a C B $ . ",
". o $ $ $ - 3 - . ; G >.d.j.j.w.I 7 . i U e.l.j.d.*.P r.h.f.f.f.f.f.f.h.t.D T f.f.f.f.j.8.G 3.d.j.d.j.d.>.G ; . - 3 3 3 3 , O . ",
". + t a p 3 # o . ; G >.j.t.w.f = % + % = F 8.p.d.*.P r.h.f.f.f.f.f.f.h.t.D T f.j.d.j.j.8.h 6.g.d.j.d.j.;.G ; . # # # + # + X X ",
". + t a a p a < X ; G ;.z.G o s t.-.g ,.r.u + -.f.*.P r.h.f.f.f.f.f.f.h.t.D T f.d.g.d.j.8.h 6.g.j.d.j.d.>.G ; . < t t 6 t 6 # . ",
". O t a a a a 3 . ; G >.j.g . s l.5.F 9.g.y . T f.*.P r.h.f.f.f.f.f.f.h.t.D T f.d.g.g.j.8.h 6.g.d.j.d.j.;.G ; X 4 a a a a p # . ",
". o $ - - & - $ . ; G ;.j.8.G d i 7 ; 8 u g h e.f.*.P r.h.f.f.f.f.f.f.h.t.D T f.g.g.g.j.8.G 6.g.j.d.j.d.>.G ; . b S c a - $ o . ",
". o - $ - - - $ . ; h >.g.g.j.&.u 7 ; 8 i 5.j.j.d.*.P r.f.f.f.f.f.f.f.h.r.P T d.h.d.h.h.8.G 6.g.g.d.d.g.>.h ; . z M 3 < > $ o . ",
". # t a t a a 3 . ; h >.g.g.j.d.j.5.h 9.f.f.f.f.d.*.P r.h.f.f.f.f.f.f.h.r.K T d.h.h.h.h.8.G 6.g.g.g.g.g.>.h ; . # # # # 6 a + . ",
". # p a a a a 3 X ; h :.d.d.g.j.j.,.h 9.j.f.f.f.d.*.P r.h.f.f.f.f.f.f.h.t.K *.p.f.f.d.h.8.G 3.g.d.g.g.g.>.h ; X 3 a t a k p # . ",
". * X.} a t a 3 X ; h :.g.g.g.d.f.5.F 9.j.f.f.f.d.*.P r.h.f.f.f.f.f.f.h.t.K *.f.f.f.h.h.8.g 3.g.d.g.g.g.>.h ; X 3 a a p ....$ . ",
"X * v. .> $ $ $ . ; h >.f.f.f.f.j.,.H 8.j.f.f.f.d.*.P r.f.f.f.f.f.f.f.h.t.D T f.f.f.f.h.8.G 3.j.j.j.f.f.>.G ; . $ $ 4 a n v # . ",
"X # z j > - - $ . ; F >.f.f.f.f.f.,.h 8.j.f.f.f.d.*.P r.h.f.f.f.f.f.f.h.t.K T f.f.f.f.h.8.G 6.l.j.j.j.j.h 7 @ X $ - , , , - o X ",
"X X $ - t a t 4 X ; h :.f.f.f.f.j.5.H 8.j.f.f.f.d.*.P r.h.f.f.f.f.f.f.h.t.D T f.f.f.f.h.8.G U ;.;.;.;.*.; . . o 3 a - $ $ # X X ",
"X O t a a a l t X ; h :.f.f.f.f.j.,.H 8.j.f.f.f.f.&.P r.h.f.f.f.f.f.f.h.t.D &.f.f.f.f.h.8.G 8 . . . . X . . . . 3 a a p k j # X ",
"X o 6 p t v x.A . ; h >.f.f.f.f.f.6.h 9.h.f.f.f.f.=.K r.l.f.f.f.f.f.f.l.t.h *.d.f.f.f.h.9.F y . . X . . . . . X 3 p a a } @.& . ",
"X X # $ $ 5 n.A X ; h :.f.f.f.f.f.2.h 9.h.f.f.f.d.=.K r.f.f.f.f.f.f.f.g.t.K *.d.f.f.f.h.7.F I -.;.&.;.;.; . . . # % 6 a #.$.* . ",
". o , , - 3 z 9 . ; h :.f.f.f.f.f.6.F 9.h.f.f.f.d.*.K r.f.f.f.f.f.f.g.l.t.h *.d.f.f.f.h.9.F 6.l.j.j.j.j.G 8 % X & , - , w e O . ",
". # p p a 6 $ # . ; h 2.f.f.f.f.f.1.h 9.h.f.f.f.d.=.K r.l.f.f.f.f.f.g.g.e.L *.d.f.f.f.h.7.G 1.g.j.f.j.j.>.G ; . 3 a > $ $ $ X X ",
"X # t a c l a 3 X ; h :.f.f.f.f.f.6.h 9.h.f.f.f.d.*.h t.g.g.f.f.f.f.f.f.r.K =.d.f.f.f.h.9.F 1.g.f.f.f.f.;.G ; X 3 a p p p p # . ",
"X o t l o...p 3 X ; h >.f.f.f.f.f.2.h 9.h.f.f.f.d.*.L t.g.g.f.f.f.f.f.l.r.K =.d.f.f.f.h.7.h 1.g.f.f.f.f.>.G ; X 3 a a a p 0 # . ",
"X X # $ > > # + . ; h >.f.f.f.f.f.6.F 9.h.f.f.f.d.*.h t.g.f.f.f.f.f.f.f.r.K =.d.f.f.f.h.9.F 1.g.f.f.f.f.;.G = X 3 a ^ X.1 + X . ",
". o 1 , , , , > . ; h :.f.f.f.f.f.1.h 9.h.f.f.f.d.*.L e.g.f.f.f.f.f.f.h.r.K =.d.f.f.f.h.7.F 6.g.f.f.f.f.>.G ; X $ > 5 w < , o X ",
". # p a a a a 3 X ; h >.f.f.f.f.f.6.h 9.f.f.f.f.d.T h a.g.g.g.g.f.f.f.h.r.P *.d.d.g.g.g.9.G 1.g.f.f.f.f.2.h ; . $ - $ - n n $ . ",
". o 3 4 a a a 3 . ; F -.f.f.f.f.f.6.h 9.f.f.f.f.d.E F e.h.g.d.d.f.f.f.h.r.P *.d.g.g.d.g.7.G 1.g.f.f.f.f.:.h ; X 3 a c n ..) $ . ",
". X # > 6 t t 3 X ; h >.f.f.f.f.f.6.h 8.g.f.f.f.d.&.F a.h.d.g.g.f.f.f.h.r.P *.d.g.d.g.g.9.G 1.h.f.f.f.f.:.h ; . < a } x.v p # . ",
". $ _ V $ # # + . ; h >.f.f.d.f.f.2.h 8.g.f.f.f.d.&.F a.h.d.g.g.f.f.f.f.r.P T d.g.g.g.g.7.F 1.g.f.d.f.f.2.h ; . o $ _ n.v 6 O . ",
". # b b 3 3 3 > . ; F L ;.;.;.;.;.Y K E >.-.>.-.;.L K =.;.-.;.;.:.-.:.:.&.K L >.-.;.;.;.=.h Y :.-.-.:.:.I h ; . - < 5 5 * $ . . ",
". $ N C a a a 3 X $ 8 8 8 8 8 8 8 8 y 8 8 8 8 8 8 8 8 8 8 8 8 8 8 8 8 8 8 8 8 8 8 8 8 8 y 8 y 8 8 8 8 8 y y $ . 4 a , > w z # . ",
". $ V V 6 3 3 , X X X X X X X . . . . . . . . . . . X X . X X . . . . . . . . . X X . X . . . . . . . . . X . o , 3 5 4 B V $ . ",
". X o X X X X X X . . X . . X X X X X . X X X X X X . X X . X X . X . X X X X X . X X . X . X X . X X . . . . X . X X X o o X . "
};
