/* XPM */
static char *result[] = {
/* columns rows colors chars-per-pixel */
"64 64 15 1 ",
"  c #00A125",
". c #009D24",
"X c #009623",
"o c #00A025",
"O c #009723",
"+ c #009924",
"@ c #009823",
"# c #009C24",
"$ c #009F25",
"% c #009E24",
"& c #009A24",
"* c #009B24",
"= c #009E25",
"- c #009923",
"; c white",
/* pixels */
" .X.oO+  o@XX#  $XXXXXXXX%oO& &XX& &XXXX# @XXXXXXX* +XXXXX@o    ",
" =+%o&*  o@O-.  $++++@XO+$o&# #++*%+XXO+#%OXXXX@@X* +XXXX@&%%%%%",
"         o@-o        $X&         .XXXX+ *XXXXXO$$X* +XXXX%$OXXXX",
"#%    o#$ #*#$  o#= .#*%      %###*@X&. %****@X*#*% +O*+X&*X@***",
"X&    %X#  %X#  $X* -@o       &XX& &O$       *XX@   -@ #XXXX&   ",
".=    %X#  o.*&&*.#&#.&.  o*&&#..= $. $&%    *XX@o  %% $....$   ",
"      %O#o   #XX-o#O$$O*  $@XO%   o   .O#    #OO+o             o",
"      o$*@$  o$$%@*$o $o   $$$o  %@%o+&$o    o$$$             *@",
"$o      #@$ $o o.X*    o$$$ o$$$ %@#=+&$o    o$$$      o$o $o *@",
"X&       o =O# +XX*    .OO@o.OX@o o&O$%O.    #OX+o     .O%o@*  o",
"&*....=    $&#.*&&.    #X-*o=&&*o  .&o%X# %% *X+* $..% #X*#X&   ",
" .XXXX+      *X$       #X%            %X#o@- *X$  #XX@o#XXXX&   ",
"*+XXXXO*= #**##******# #X+**. .********#$ .. =#o  #XX@o$#@O*%   ",
"XXXXXXXX#o@XX# @XXXXX@o#XXXX& &XXXXXXX+           #XX@o  +Oo    ",
"XXXXXX@%oo@XX# @XXXX#$ #X#%%#+OO.*XXXXO-%  $+. ** #XX@o  +Oo%+++",
"XXXXXO&o o@XO#$+OXXX=  #X% o#XXOo%OOOXXO#o =O# @@ #OX@$o &-o.OOO",
"XXXXO=.O. @@o*O%%XXX=  #X%o@OXXOo oo$O-o*@$ oo @@o $@XO* oo  ooo",
"+@XXOo$+#%&&%*+..+++.%%*X#.++++&.%%%%&&%+O$  o%&* o%&@X* $%%$   ",
" .XXOo  *O$%X#o@@o o+XXXXX@o   oOXXXO$%OXO$  *O=  #O%$X* +XX*   ",
"##*@X*##-X*#*##O@ $#*&XXXXO*% %#*****#&XXX*##+X$  #X=o**#*&X@###",
"X& &XXXXXXX+ *XX@ #X=$OXXXXX& &Oo   o@XXXXXXXXO$  #X%  #X%oOXXXX",
"XO&OXXXXXX#% *X#.&@X+*......$ &Oo    %*X&..*X&.** #X+&&*.oo%&XXX",
"XXXXOOOOOO$  *X==OXXX-o      o+Oo     %O#  =X*o@@o#OOOX*    .OXX",
"XXX*$$$$$$   *XO&$*X.o      %@OOo   o+&$*@o%XO@XX@*$$$$#@=  o$+X",
"@@@%    o$$$$*@X@ .@.$$o    .XO+oo$$=+* #@$$@OX@@X*   $#@.$$$$+X",
"ooo     *OOOO#o@@  o+OO*    .X.  %OOO$   o   *X==X*  $O*o+XOOOXX",
".= $.oo.+X++X&.OO...@XX+....&X*..*X@*oo......*&##&*..#X* #+XO&OX",
"X& &Oo%XXO$=XXXXXXXXXXXXXXXXXXXXXXX.  %XXXXXX# @@ #XXXX*  $O& &X",
"#% &Oo%X+#*&XXXXO#+X**XXXXO#&XXO*&X+**+XXXX@##*OO*-X&##% .&X& %#",
"   &Oo%X#o@XXXXX- #X%$OXXX@o.XXOo%XXXXXXXXX+ *XXXXXO=    +XX&   ",
"   $= o=*+.%%%%%$ #X@@X+%%$ o%-Ooo%+O.%%+XXO+#%%%%%%o    +O.$   ",
"ooo    o&X%oooo  o*XOOO*ooo  o+Oo o&O$  *XOOX#   oo      &-o    ",
"OOO.  %@XXOOOO@$$@OX.oo#OO+o.OXOo%OXO$  *O%.X#  $@#      oo     ",
"XO+#%%#X@+XXXXX$$+OX#==*XXO.*XXO.*XXO.$ *X.#X# $.+*%%%%$ $%%%%%%",
"X& &XXXX#o@XXXO$  #XXXXXXXXXXXXXXXXXXX+ *XXXX# @@o#XXXX* +XXXXXX",
"X@#***+X+#OO*@X*. #X&&X@******@O&**@X&. %**&X+#**##**&X* .&X@***",
"XXX.  %XXXX+ *XX@ #X=$O*      &Oo  &O$     =XXX$$X*  $O*  $O&   ",
"XXX. *-X&.O- *X#% $.oo.#&$o*&&#%   &O$$&&&o=XXX++X* #&.#&&+XO&&&",
"XXO.o@XX#o@- #O=       .O.$OXX.   o&Oo%OXO=%XXOXXO*o+@ .XXXOXXXO",
"X+$*@%#XO@X- o$+&      o$&+=#XO+o%@OO$ $&X@@X*$@@$#@.o o$-O=#X#$",
"@&$*-o$@OX@&$$$@@o    $$$@Oo.XO+o%@@-%o *XXXX*$@@$*X.o o$&+o%@% ",
" .O.   o&X=%OOOX@o   $OOOX@o.X.   ooo@& *XXXXXOXXOXXX@o.O.   o  ",
".#&= %% .&o=X@&&*    o&@XXO.&X. %...#O+ *X+&&&&OO&@X+* %&$      ",
"X&  o@+    %X#         #XXXXXX.oOXXXXX+ *X$    @@ #X%           ",
"#%  oO+   #*#$  o***$  $######$o.##@X*#*##oo***OO**#o         .*",
"    o@+o o@+o   $OXO%              &Oo%X#  %XXXXXX*           &X",
"     $.+% $.+.  o%%%oo+#  o+#      $= %X@++&%%%=#X*           $%",
"      %X#  $O#o      $@*  o@*   ooo  o.XXXO&   o%@*o  oo   oo   ",
"      %X#   o*@$      oo   oo  o@OO.o+OXXO%o   ++o#@$$@*  o@*   ",
"      %X#    .+.$           o%ooOO+%o@XX@&o    *&%&X%o+*%oo+# $%",
"      %X#     o@@o          .X%oO&  o@XX#       $OXX%  #X%    &X",
" $#$  $*= ..   ## $#oo#% .. .X&*O& %*OO*##o    .#***oo##*#####**",
" .X.     o@-      #X%$O* +Oo.XXXX& &XX+ *X$   o@@    $O* +XXXX. ",
" o.**o$&&&O+ .&&* #X+*.$ =.&@X*..#&OXXO&@X+&&% @@ %&$o.#&OO.&X. ",
"ooo&Oo%XXXX-o*XX-o#OX@o   $OXO%  .OXXOOOXXXXX*o@@ #X%o #XX@o.O.o",
"@@@OOo%XXXXX@#$$.@*$@@o  *OX+$oo+&$+O%$$&XXXXO@X@ #X@@@OXXX@*$&@",
"XO@@+o=@OXXX@.  $@# &&o  *@@#  oO& &O$ $*@@@@OXX@ #XXX@@@@@@* &X",
"X+ooo  o&XX-o    o        oo   oO& &O$%O#oooo*XX@ #XX@oooooo  &X",
"X&   %% .&&*...o    %..$ =% o..#O& .&o$&%    .&&* %&O@o       #&",
"X&  o@+    %XXO$    +XX* +Oo.XXXX&                  -@o         ",
"#%  o@O*=  o###*#   .*X@*##*+X&*O&             ##   ..   .**. .*",
"    o@XX#      @@o   $OXX%oOXX.oO&            o@@o       +XX& &X",
"   #+.#X#      $$    o=%%o =%%*+.$             $$ .++&o  $%%$ $%",
"   &Oo%X#                     &Oo                 #XX@o         "
};
