/* XPM */
static char *_f6a8b77f15f4aacae0f22e41333235dA8LIUnd4ypMy2IjJ[] = {
/* columns rows colors chars-per-pixel */
"64 64 56 1 ",
"  c black",
". c #060606",
"X c #0B0B0B",
"o c gray6",
"O c #131313",
"+ c #151515",
"@ c gray10",
"# c #1D1D1D",
"$ c gray13",
"% c gray15",
"& c #282828",
"* c #2F2F2F",
"= c gray20",
"- c #343434",
"; c #393939",
": c #3F3F3F",
"> c gray26",
", c gray27",
"< c #494949",
"1 c #4C4C4C",
"2 c #515151",
"3 c gray34",
"4 c #585858",
"5 c gray36",
"6 c gray39",
"7 c #676767",
"8 c #686868",
"9 c #6C6C6C",
"0 c #727272",
"q c #747474",
"w c gray48",
"e c #7C7C7C",
"r c gray51",
"t c gray53",
"y c gray54",
"u c gray56",
"i c #929292",
"p c gray58",
"a c #9B9B9B",
"s c gray62",
"d c gray63",
"f c #A7A7A7",
"g c #AFAFAF",
"h c #B2B2B2",
"j c gray71",
"k c gray73",
"l c gray75",
"z c #C3C3C3",
"x c #C5C5C5",
"c c #CACACA",
"v c #D2D2D2",
"b c gray86",
"n c #DDDDDD",
"m c #E1E1E1",
"M c gray91",
"N c #ECECEC",
/* pixels */
"ppppiuiipppppppppppppppppppppiuiiipppppppppppppppppppppppppppipp",
"ittt970uppppppppppppppppiiyuir00ripipppppppppppppppppppppppppiip",
"t%O+O+3yppppppppipppppppr9->89990ruippppppppppppppppppppppiiuwqi",
"qOO++.O5yppppiiiiiipppppe-.Xo:77900rippppppppppppppppppppuqq090u",
"O.@;;@.O6upipieqqqypppppe*X+oXO:9990riipppppppppppppppppuq7799qi",
" .@:>%+X3yiiyq7999qyppppe*X*;%+O:99000ripippppppppppppppt4+$570u",
" O#:,:#++608*++28890yiipe=o#->&+O:09099riipppppppppppppq$O.OO$7u",
".+#:,>$+X1&+OOO++@1890tpe6%o#-=@X=999990qrppppppppppppe#XO+@++$w",
" +@:,>#+.O.o@@#++O+++<0ye0= o#=&OO:9988880rippppppppip0o@=$;;@.@",
" .+%;%@X   +@-::;%++.O<0te6&o+**o -00<@+-90eippppppuw5$+$>:,>#O ",
"..X+#@.  OO@-,,52>:%+O+<riw6*o##o&699:.oX-80rippppyq4@O$;,,,>#+ ",
"33<O.X. O+@-><59871:%@++1tie6&XX*609<+++OO;89rpppyq93X$;1776,;@ ",
"yq7O.,1OO@@:<50ryw72%@@Xo2yue622699<++@+@+O-90epuq903@$<8yt8<:@ ",
"u08337*O+#=,5ruppuq2:%+O.:0yie9009<++@@@%=+O-8wiy904##;1qiit7>@.",
"pyyuy9O.+-,58uhlldw3,&@@+@1qye999,++@@@%:>*OX-0rir93X$>10ipi9>@ ",
"pppppt2O+:,70ydfzfq71&@+@X>9rr09,@+@@%;<64-@X$80ry02X#&,3wiu9>@.",
"pppppi9@O%:27quilfw92;%+@.:9te9<+O@%;:2896>*+O;9wy02XX@&,3qw8,@ ",
"ppppie8+O@;,28qudhaq3,&@@XO1tr9:+@%:267wr84;@O$8qy08;X+$>1982>@.",
"ppppiq7+.+$:,17wusau01&@@+.;tr,#@%:279quie6-@OX-qir02X+$>,21,>@ ",
"ppppiyt2oO@%:,18qugdw2;%+@X:rr=X@*389wufgy5>*+X$0ry97:O@*>,,>&+.",
"pppiriiq1++@%>,17ydsw2,&@@X:tr=X%:3wtudxkt73>*O$8wy904.X@%&%%@+ ",
"ppie9euq8@O@@;,,29upw3>:$@X;qq=X*27epdcnkue6,;o#0yy097;.o+@++XX ",
"pie099wte#.+@%:,,6qe6<,,&@X:09=X*4wufzbMvgt83-O#quw9907;..XX.X>4",
"piq9009wu7,+O@%:,133<,-&$O :ee=X*4qtskbNmcfe6;o$wy95*&;7,,,,><0i",
"ie08-&=6eiy1@+@$*&&:,-#@@X%5tr=X*160tslbnblt6-O#qy97- X&*;90000u",
"u08=.Xo%=9iy1+XO@+@%&#@@o >eur=X%-<60tsjvcdy6;+%wur5% ooX.-8990u",
"uq7Oo+@o.%9rr2:@XXXO@oX.&>4tpr3$#;,16qtskkyw6;@=9tu3Xo#=*oO8090i",
"i9=.+**#o.%6wt01;;:@X&::59wupe0;+*;,150tsft72-@=0yw&O@$,>&+-890u",
"u8oX@:,=#o.%6wrqett6170etruiyq94%o$-,<60tpy5,;+%qi5X#=-,3>@@790i",
"i8O@*35<=#o.%6yyippppyripyyyq1==@.o@;,<6qrw6,-O$wy2X$<467>==:70u",
"u8O+>485,-#o.2ypippppppppyur0=.XX. X$*-16742:&o#qy3o=1997,>&+6qu",
"u7OO&,8e6,=#X6ipppyrrrrrrrrq2@X@@OoXO@$;12:*&+X%r9*@>29084:+O6qu",
"iqOO@>8eq5<$X9pyrrq<-51--;-4= O@%*%OXoo$-:%@@oo2y2X#=18444:+O6qu",
"pt+X@*3585<$X6tq<;;OX&@    $@o@@*,;*#XXO$%@+o+,wy2.o$<3,,<:@O6qu",
"pu:X+@*>4<-#X1<;+XXXOoX      XO+*142;%o.oXo@=,0ty6%.#=:===*+O7qu",
"ii9-Oo@&==#+o1#.O@+@%**@Xo.   o@*2774;O.O=*,90tpuw6&O#&@@++XX:9i",
"pu08;XXXo+O=-5$$*&*&:,,-&$OXX X+%;1702%o*qreetutyue6&oXoooo ..>y",
"piq98;**&O.30<@%>21,243<,-&$@X .O%:253;@#4ttty9:2tuw5==&  Xo+X+r",
"puq909009;*58#O%:6537993>,<*@O. .O%;,,,-o+:>>>=.#0yue07-.X@&&++r",
"pir098<>,7008#O;,69weeq5<,,-#@o  .+%:,,-o X.X.o+@10tr8;Xo%*>-++r",
"ppuq98+  -,79#O*>60tppt051,,*@O ++XO$:,=XX#&%&&&#@197;o@*,2:#++r",
"ppiq9,o.XXo-,=++;38riiit05<,-#+O:1+.O%-$ o&<3331;O$93X@*,47,&o+r",
"ppiq7O.+%&@o.2$o*>69tpppt03,,*@@*51+X@@oX#=20q96:$@,-o#,4982;X=t",
"ppu07+O#;>*@o-+O@;38eippit7<,-#@X-q3@ooXo&<5wuq6,;+ .@*18007=O7u",
"ppiq6OO@:1,%+.@@+*>48eipppe5<,-$X$9y3$+X#=20rpy6,:O .#-19994@o7i",
"piuq7OO%>61$@X-+O@;,60eippt06<,*O >ut9:X&,3eppy6,;+..+$:665-@O7u",
"ppuq7O+:<71&@X.++@-,499riiit05<-$X=ryq>.%:2quap9,:%O.O@$,,:@O&8i",
"ppu07*+=,53,*@X<$o=>,499tpppr93,=X*wur>X@&17wfle1,;+..O$-;=#&70u",
"ppi097++=,74,$X1$o@-,,48ripuw94:&X-9ey,X@&,3wfza92:$O .O@+@-89qu",
"ppi097+O#:56<%X1-.O*>,<59ryw773=@o-0ei3X@&,2wdlhy82;+.+.O+&7900u",
"ppiw07+o@=,,;$X19$X@*>,480082,,=+X%26e6+O&,2qyuit95:O@3@ o<399qu",
"ppii07%.+#;,*@X19=@+@*>,4982,,>&o  X&35>X&,289wr95,;O@6>...o290u",
"pppiw97+O@=:;#.1088%o@=;,42,>;&@X o+O.%=X%:,27775<>-++>XX@@X+2qi",
"ppppiq8&O@@+O.+4090-O++@*:>,*@+X X@##O...+%:>:;:>:=@O  X+&;$++3u",
"ppppiw97&OO++@,33336-.XO@@*:&+X  o#=-$$+ .+%=@@%=#@o  .@%><:$O+7",
"pppppiq97&@383#XXXX:7-++OOO+++X o@=,1<<=oX+++O++++O+O.@%>271>$.X",
"pppppiw998899$O@#$@o;777-++++>:O+*>3995;O$:++++#$+&6>o%>2907<:+ ",
"ppppppiw09908#O@->%X.<008788898=o&:3785,=O&778990983o$>18096,>@.",
"pppppppiw9998#o+;,&@.,0900qtr09>O+*><34<-O$60eiiiyq2X@:<786<,;@ ",
"ppppppppiw098&.O;,>%X:899riiir08;O+*:><,-+O&wiipppu4O.#:>>,,:#O.",
"ppppppppiiw907@o=:>&+o<00tppppr08:O+@&::=+o%wppppppt2O.+#$:;#O.O",
"pppppppppiiw99%.O#=%+.,0tippppir08:XX+###@o%wppppppu02O.O++@O.$q",
"pppppppppppiw08&.o@+Xo1qtppppppir09>O@++++X%epppppiiyq3++@+++$ep",
"ppppppppppppuuit% .. 2uuipppppppiuuyrr2 .  =ipppppppiuurrrrrrtpp"
};
