/* XPM */
static char *result[] = {
/* columns rows colors chars-per-pixel */
"64 64 10 1 ",
"  c #6C3C4A",
". c #354048",
"X c #3C5D4C",
"o c #7D5643",
"O c #484562",
"+ c #9B6B53",
"@ c #268556",
"# c #1FA361",
"$ c #3EC259",
"% c None",
/* pixels */
"%%%%%%%%%%%%%%%%%%%%%%%%%%%%%%%%%%%%%%%%%%%%%%%%%%%%%%%%%%%%%%%%",
"%%%%%%%%%%%%%%%%%%%%%%%%%%%%%%%%%%%%%%%%%%%%%%%%%%%%%%%%%%%%%%%%",
"%%%%%%%%%%%%%%%%%%%%%%%%%..OOOOOOOOOO..%%%%%%%%%%%%%%%%%%%%%%%%%",
"%%%%%%%%%%%%%%%%%%%%%%%%%..OOOOOOOOOO..%%%%%%%%%%%%%%%%%%%%%%%%%",
"%%%%%%%%%%%%%%%%%%%%%%%..##$$$$$$$$$$##..%%%%%%%%%%%%%%%%%%%%%%%",
"%%%%%%%%%%%%%%%%%%%%%%%..##$$$$$$$$$$##..%%%%%%%%%%%%%%%%%%%%%%%",
"%%%%%%%%%%%%%%%%%%%%%..$$$$$$$$$$$$$$$$$$..%%%%%%%%%%%%%%%%%%%%%",
"%%%%%%%%%%%%%%%%%%%%%..$$$$$$$$$$$$$$$$$$..%%%%%%%%%%%%%%%%%%%%%",
"%%%%%%%%%%%%%%%%%%%%%OO##$$$$$$$$$$$$$$##OO%%%%%%%%%%%%%%%%%%%%%",
"%%%%%%%%%%%%%%%%%%%%%OO##$$$$$$$$$$$$$$##OO%%%%%%%%%%%%%%%%%%%%%",
"%%%%%%%%%%%%%%%%%%%%%OO@@##############@@OO%%%%%%%%%%%%%%%%%%%%%",
"%%%%%%%%%%%%%%%%%%%%%OO@@##############@@OO%%%%%%%%%%%%%%%%%%%%%",
"%%%%%%%%%%%%%%%%%%%%%..@@@@##########@@@@..%%%%%%%%%%%%%%%%%%%%%",
"%%%%%%%%%%%%%%%%%%%%%..@@@@##########@@@@..%%%%%%%%%%%%%%%%%%%%%",
"%%%%%%%%%%%%%%%%%%%%%..@@@@##########@@@@..%%%%%%%%%%%%%%%%%%%%%",
"%%%%%%%%%%%%%%%%%%%%%..@@@@##########@@@@..%%%%%%%%%%%%%%%%%%%%%",
"%%%%%%%%%%%%%%%%%%%%%..@@..............@@..%%%%%%%%%%%%%%%%%%%%%",
"%%%%%%%%%%%%%%%%%%%%%..@@..............@@..%%%%%%%%%%%%%%%%%%%%%",
"%%%%%%%%%%%%%%%%%%%%%OO@@XX..........XX@@OO%%%%%%%%%%%%%%%%%%%%%",
"%%%%%%%%%%%%%%%%%%%%%OO@@XX..........XX@@OO%%%%%%%%%%%%%%%%%%%%%",
"%%%%%%%%%%%%%%%%%%%%%OO@@@@##########@@@@OO%%%%%%%%%%%%%%%%%%%%%",
"%%%%%%%%%%%%%%%%%%%%%OO@@@@##########@@@@OO%%%%%%%%%%%%%%%%%%%%%",
"%%%%%%%%%%%%%%%%%%%%%..@@@@##########@@@@..%%%%%%%%%%%%%%%%%%%%%",
"%%%%%%%%%%%%%%%%%%%%%..@@@@##########@@@@..%%%%%%%%%%%%%%%%%%%%%",
"%%%%%%%%%%%%%%%%%%%%%..XX@@##########@@XX..%%%%%%%%%%%%%%%%%%%%%",
"%%%%%%%%%%%%%%%%%%%%%..XX@@##########@@XX..%%%%%%%%%%%%%%%%%%%%%",
"%%%%%%%%%%%%%%%%%%%OOXX..OOOO......OOOO..XXOO%%%%%%%%%%%%%%%%%%%",
"%%%%%%%%%%%%%%%%%%%OOXX..OOOO......OOOO..XXOO%%%%%%%%%%%%%%%%%%%",
"%%%%%%%%%%%%%%%%%OO##@@XX@@  oo++oo  @@XX@@##OO%%%%%%%%%%%%%%%%%",
"%%%%%%%%%%%%%%%%%OO##@@XX@@  oo++oo  @@XX@@##OO%%%%%%%%%%%%%%%%%",
"%%%%%%%%%%%%%%%OO##@@XXOO##@@      @@##OOXX@@##OO%%%%%%%%%%%%%%%",
"%%%%%%%%%%%%%%%OO##@@XXOO##@@      @@##OOXX@@##OO%%%%%%%%%%%%%%%",
"%%%%%%%%%%%%%%%OO@@##OOOO@@##########@@OOOO##@@OO%%%%%%%%%%%%%%%",
"%%%%%%%%%%%%%%%OO@@##OOOO@@##########@@OOOO##@@OO%%%%%%%%%%%%%%%",
"%%%%%%%%%%%%%%%OO##@@OOOOXX##########XXOOOO@@##OO%%%%%%%%%%%%%%%",
"%%%%%%%%%%%%%%%OO##@@OOOOXX##########XXOOOO@@##OO%%%%%%%%%%%%%%%",
"%%%%%%%%%%%%%..##@@##OO..XX@@@@@@@@@@XX..OO##@@##..%%%%%%%%%%%%%",
"%%%%%%%%%%%%%..##@@##OO..XX@@@@@@@@@@XX..OO##@@##..%%%%%%%%%%%%%",
"%%%%%%%%%%%%%OO@@##@@XX..  @@@@@@@@@@  ..XX@@##@@OO%%%%%%%%%%%%%",
"%%%%%%%%%%%%%OO@@##@@XX..  @@@@@@@@@@  ..XX@@##@@OO%%%%%%%%%%%%%",
"%%%%%%%%%%%%%    oooo  ..oo  oooooo  oo..  oooo    %%%%%%%%%%%%%",
"%%%%%%%%%%%%%    oooo  ..oo  oooooo  oo..  oooo    %%%%%%%%%%%%%",
"%%%%%%%%%%%%%..oo++++ooOO  oo++++++oo  OOoo++++oo..%%%%%%%%%%%%%",
"%%%%%%%%%%%%%..oo++++ooOO  oo++++++oo  OOoo++++oo..%%%%%%%%%%%%%",
"%%%%%%%%%%%%%%%..oo++++OO@@@@######@@@@OO++++oo..%%%%%%%%%%%%%%%",
"%%%%%%%%%%%%%%%..oo++++OO@@@@######@@@@OO++++oo..%%%%%%%%%%%%%%%",
"%%%%%%%%%%%%%%%%%......OO@@@@######@@@@OO......%%%%%%%%%%%%%%%%%",
"%%%%%%%%%%%%%%%%%......OO@@@@######@@@@OO......%%%%%%%%%%%%%%%%%",
"%%%%%%%%%%%%%%%%%%%%%OOooOO@@######@@OOooOO%%%%%%%%%%%%%%%%%%%%%",
"%%%%%%%%%%%%%%%%%%%%%OOooOO@@######@@OOooOO%%%%%%%%%%%%%%%%%%%%%",
"%%%%%%%%%%%%%%%%%%%%%..  oo  OOOOOO  oo  ..%%%%%%%%%%%%%%%%%%%%%",
"%%%%%%%%%%%%%%%%%%%%%..  oo  OOOOOO  oo  ..%%%%%%%%%%%%%%%%%%%%%",
"%%%%%%%%%%%%%%%%%%%....  ++oo  ..  oo++  ....%%%%%%%%%%%%%%%%%%%",
"%%%%%%%%%%%%%%%%%%%....  ++oo  ..  oo++  ....%%%%%%%%%%%%%%%%%%%",
"%%%%%%%%%%%%%%%%%....  ++++oo  ..  oo++++  ....%%%%%%%%%%%%%%%%%",
"%%%%%%%%%%%%%%%%%....  ++++oo  ..  oo++++  ....%%%%%%%%%%%%%%%%%",
"%%%%%%%%%%%%%%%%%......  oo  ......  oo  ......%%%%%%%%%%%%%%%%%",
"%%%%%%%%%%%%%%%%%......  oo  ......  oo  ......%%%%%%%%%%%%%%%%%",
"%%%%%%%%%%%%%%%%%%%..........................%%%%%%%%%%%%%%%%%%%",
"%%%%%%%%%%%%%%%%%%%..........................%%%%%%%%%%%%%%%%%%%",
"%%%%%%%%%%%%%%%%%%%%%%%..................%%%%%%%%%%%%%%%%%%%%%%%",
"%%%%%%%%%%%%%%%%%%%%%%%..................%%%%%%%%%%%%%%%%%%%%%%%",
"%%%%%%%%%%%%%%%%%%%%%%%%%%%%%%%%%%%%%%%%%%%%%%%%%%%%%%%%%%%%%%%%",
"%%%%%%%%%%%%%%%%%%%%%%%%%%%%%%%%%%%%%%%%%%%%%%%%%%%%%%%%%%%%%%%%"
};
